<svg height="128" width="128" xmlns="http://www.w3.org/2000/svg"><rect x="2" y="2" width="124" height="124" rx="14" fill="#363d52" stroke="#212532" stroke-width="4"/><g transform="scale(.101) translate(122 122)"><g fill="#fff"><path d="M105 673v33q407 354 814 0v-33z"/><path d="m105 673 152 14q12 1 15 14l4 67 132 10 8-61q2-17 18-18l218-9q14-2 15-16l3-54q3-24-16-31l-197-93-23 5-171 93c-12 8-14 20-13 34l10 63z" fill="#478cbf"/><path d="M5 646q0-121 80-191.5T275 404t220 56 163 165v58a10 10 0 0 1-10 10h-1088a10 10 0 0 1-10-10z"/></g></g></svg>